HIERARCHY
ROOT Hips
{
	OFFSET 0.000000 0.000000 0.000000
	CHANNELS 6 Xposition Yposition Zposition Xrotation Yrotation Zrotation
	JOINT LeftUpLeg_virtual
	{
		OFFSET 0.000000 0.000000 0.000000
		CHANNELS 3 Xrotation Yrotation Zrotation
		JOINT LeftUpLeg
		{
			OFFSET 15.427100 -6.655098 0.678600
			CHANNELS 3 Xrotation Yrotation Zrotation
			JOINT LeftLeg
			{
				OFFSET 4.081073 -39.591068 13.024000
				CHANNELS 3 Xrotation Yrotation Zrotation
				JOINT LeftFoot
				{
					OFFSET -4.081074 -37.707932 -15.979700
					CHANNELS 3 Xrotation Yrotation Zrotation
					JOINT LeftToeBase
					{
						OFFSET 5.346399 -15.068900 20.645000
						CHANNELS 3 Xrotation Yrotation Zrotation
						JOINT LeftToe_End
						{
							OFFSET 2.754700 0.931300 11.300900
							CHANNELS 3 Xrotation Yrotation Zrotation
							End Site
							{
								OFFSET 0 0 0
							}
						}
					}
				}
			}
		}
	}
	JOINT RightUpLeg_virtual
	{
		OFFSET 0.000000 0.000000 0.000000
		CHANNELS 3 Xrotation Yrotation Zrotation
		JOINT RightUpLeg
		{
			OFFSET -15.569500 -6.655098 0.678600
			CHANNELS 3 Xrotation Yrotation Zrotation
			JOINT RightLeg
			{
				OFFSET -4.081825 -39.591045 13.023800
				CHANNELS 3 Xrotation Yrotation Zrotation
				JOINT RightFoot
				{
					OFFSET 4.081824 -37.707954 -15.979600
					CHANNELS 3 Xrotation Yrotation Zrotation
					JOINT RightToeBase
					{
						OFFSET -5.346400 -15.068900 20.645000
						CHANNELS 3 Xrotation Yrotation Zrotation
						JOINT RightToe_End
						{
							OFFSET -2.754700 0.931300 11.300900
							CHANNELS 3 Xrotation Yrotation Zrotation
							End Site
							{
								OFFSET 0 0 0
							}
						}
					}
				}
			}
		}
	}
	JOINT Spine_virtual
	{
		OFFSET 0.000000 0.000000 0.000000
		CHANNELS 3 Xrotation Yrotation Zrotation
		JOINT Spine
		{
			OFFSET -0.279200 12.230698 -2.892100
			CHANNELS 3 Xrotation Yrotation Zrotation
			JOINT Spine1
			{
				OFFSET -0.232667 10.192268 -1.242267
				CHANNELS 3 Xrotation Yrotation Zrotation
				JOINT Spine1_split
				{
					OFFSET -0.232667 10.192268 -1.242267
					CHANNELS 3 Xrotation Yrotation Zrotation
					JOINT Spine2
					{
						OFFSET -0.232667 10.192268 -1.242267
						CHANNELS 3 Xrotation Yrotation Zrotation
						JOINT Neck_virtual
						{
							OFFSET 0.000000 0.000000 0.000000
							CHANNELS 3 Xrotation Yrotation Zrotation
							JOINT Neck
							{
								OFFSET -0.418800 17.814194 8.416900
								CHANNELS 3 Xrotation Yrotation Zrotation
								JOINT Head
								{
									OFFSET 0.000000 7.031097 3.806800
									CHANNELS 3 Xrotation Yrotation Zrotation
									JOINT HeadTop_End
									{
										OFFSET 0.000000 24.646606 12.978600
										CHANNELS 3 Xrotation Yrotation Zrotation
										End Site
										{
											OFFSET 0 0 0
										}
									}
								}
							}
						}
						JOINT LeftShoulder_virtual
						{
							OFFSET 0.000000 0.000000 0.000000
							CHANNELS 3 Xrotation Yrotation Zrotation
							JOINT LeftShoulder
							{
								OFFSET 8.476499 7.247704 -3.868750
								CHANNELS 3 Xrotation Yrotation Zrotation
								JOINT LeftShoulder_split
								{
									OFFSET 8.476499 7.247704 -3.868750
									CHANNELS 3 Xrotation Yrotation Zrotation
									JOINT LeftArm
									{
										OFFSET 9.308998 -2.777710 0.208600
										CHANNELS 3 Xrotation Yrotation Zrotation
										JOINT LeftForeArm
										{
											OFFSET 29.972298 0.000000 0.000000
											CHANNELS 3 Xrotation Yrotation Zrotation
											JOINT LeftHand
											{
												OFFSET 26.026505 0.000000 0.000000
												CHANNELS 3 Xrotation Yrotation Zrotation
												End Site
												{
													OFFSET 0 0 0
												}
											}
										}
									}
								}
							}
						}
						JOINT RightShoulder_virtual
						{
							OFFSET 0.000000 0.000000 0.000000
							CHANNELS 3 Xrotation Yrotation Zrotation
							JOINT RightShoulder
							{
								OFFSET -7.570500 7.247704 -3.868750
								CHANNELS 3 Xrotation Yrotation Zrotation
								JOINT RightShoulder_split
								{
									OFFSET -7.570500 7.247704 -3.868750
									CHANNELS 3 Xrotation Yrotation Zrotation
									JOINT RightArm
									{
										OFFSET -9.308998 -2.777710 0.208500
										CHANNELS 3 Xrotation Yrotation Zrotation
										JOINT RightForeArm
										{
											OFFSET -29.972300 0.000000 0.000000
											CHANNELS 3 Xrotation Yrotation Zrotation
											JOINT RightHand
											{
												OFFSET -26.026505 0.000000 0.000000
												CHANNELS 3 Xrotation Yrotation Zrotation
												End Site
												{
													OFFSET 0 0 0
												}
											}
										}
									}
								}
							}
						}
					}
				}
			}
		}
	}
}
MOTION
Frames: 4
Frame Time: 0.03333333
-2.474365 90.949158 -0.627338 0.000000 0.000000 0.000000 1.883535 2.269119 -1.723065 -24.884444 11.094027 10.860443 41.120925 -0.312286 1.183535 -5.529135 -0.942767 -4.156037 -5.088571 -0.890415 -0.516805 0.000000 0.000000 0.000000 4.038465 3.019290 -1.288686 -17.194508 -3.740141 1.774433 21.324609 0.173712 -1.098374 -9.033101 1.602060 3.969775 -0.630842 0.772290 1.820519 0.000000 0.000000 0.000000 0.974528 0.727883 -1.176329 6.377991 -0.512172 1.223266 2.618826 -1.481866 1.633316 1.015321 -0.182473 0.723454 0.000000 0.000000 0.000000 2.646644 -1.463818 1.289855 -2.247087 4.577465 -0.813525 -1.794649 -0.130713 0.026434 0.000000 0.000000 0.000000 2.754832 -1.729769 1.264885 1.206465 -10.241764 -14.617189 1.556522 2.805266 -2.772863 11.940558 -22.747105 -47.930825 -0.822500 -21.924880 -2.299278 0.000000 0.000000 0.000000 1.491698 -1.416412 2.465717 0.687405 3.143299 16.279962 0.591747 0.139426 -2.763133 7.363484 23.003387 48.084166 -0.316954 33.589996 1.607692 0.000000 0.000000 0.000000 
-0.682590 90.667953 0.912498 0.000000 0.000000 0.000000 2.203479 2.247645 -1.483700 -24.556926 9.971923 11.839633 40.381598 0.359906 0.777443 -6.074751 -0.569088 -3.361924 -4.029901 -0.539342 -1.291743 0.000000 0.000000 0.000000 4.387393 2.801796 -1.047224 -16.895709 -2.913454 0.748045 22.137065 0.521619 -1.232981 -9.557785 1.319796 3.498981 0.303050 0.656463 1.808616 0.000000 0.000000 0.000000 1.474729 0.787382 -1.333663 6.373886 -0.001302 1.244648 2.897782 -1.237806 1.494537 0.858044 0.741444 0.673592 0.000000 0.000000 0.000000 2.724170 -1.221635 1.123411 -2.237909 4.071309 -0.280099 -2.163626 -0.287065 -0.037752 0.000000 0.000000 0.000000 3.036371 -1.415611 1.182566 1.132820 -9.698957 -14.801667 0.765992 3.561359 -3.428618 12.507354 -21.117405 -48.184410 -0.888990 -21.155999 -2.366221 0.000000 0.000000 0.000000 1.599835 -1.162064 2.206531 0.449935 3.221137 16.060295 1.138401 0.778808 -3.149263 6.677306 23.540385 47.867581 -0.217945 36.999995 1.498134 0.000000 0.000000 0.000000 
2.134917 90.354248 3.144367 0.000000 0.000000 0.000000 2.437401 2.057151 -1.001732 -24.797553 8.171439 14.076384 38.927663 1.484581 0.292030 -5.288478 0.566091 -4.432284 -2.483378 -0.098308 -2.349787 0.000000 0.000000 0.000000 4.432677 3.025095 -0.676227 -16.005187 -1.979481 -1.174109 23.660947 1.289278 -1.475293 -10.609029 0.821284 3.729233 0.528898 0.616760 1.580756 0.000000 0.000000 0.000000 1.843063 0.996479 -1.179395 6.607276 1.100875 1.125755 3.164706 -0.262301 1.177427 0.845219 1.054416 0.671563 0.000000 0.000000 0.000000 2.857226 -0.267496 0.722445 -2.025430 3.338487 -0.007535 -2.677449 -1.734528 -0.042396 0.000000 0.000000 0.000000 3.215385 -0.417005 0.869319 1.004721 -9.586912 -15.301184 -0.157707 3.754787 -3.815571 11.954910 -18.443235 -48.522791 -0.978370 -20.760683 -2.330594 0.000000 0.000000 0.000000 1.731614 -0.185788 1.732142 0.184113 3.954016 15.934239 1.855446 0.672252 -3.318545 7.210896 23.694466 46.887630 -0.024564 43.318480 1.182766 0.000000 0.000000 0.000000 
5.478276 89.842262 5.723957 0.000000 0.000000 0.000000 2.440349 1.813132 -0.436929 -25.549617 5.941461 17.103046 36.671129 2.714534 -0.110136 -2.930201 1.808067 -7.462345 -1.548690 0.307117 -3.108429 0.000000 0.000000 0.000000 4.147457 3.320401 -0.256385 -14.571549 -1.134011 -3.881254 25.284360 2.470454 -1.662591 -11.811899 0.360464 4.752672 0.201997 0.658750 1.190208 0.000000 0.000000 0.000000 1.896463 1.156141 -0.823939 6.960966 2.618571 0.939349 3.426135 1.236900 0.748693 1.106500 0.584191 0.636382 0.000000 0.000000 0.000000 3.054737 1.243567 0.198131 -1.695026 2.487751 0.012931 -3.298333 -4.272999 0.012544 0.000000 0.000000 0.000000 3.344107 1.105672 0.406267 0.835373 -9.945703 -16.091892 -0.763577 3.415022 -4.034655 10.413228 -15.077655 -48.848885 -1.021092 -20.722944 -2.176052 0.000000 0.000000 0.000000 1.903107 1.338147 1.147445 -0.110603 5.259004 15.874101 2.446849 -0.013078 -3.123008 8.693190 23.173252 45.290680 0.328251 51.097588 0.602269 0.000000 0.000000 0.000000 
